<svg width="21" height="21" viewBox="0 0 21 21" fill="none"  xmlns="http://www.w3.org/2000/svg">
<path  d="M17.1797 3.17892C15.291 1.29019 12.7797 0.25 10.1086 0.25C7.43744 0.25 4.9263 1.29019 3.03757 3.17892C1.14883 5.06766 0.108643 7.5788 0.108643 10.25C0.108643 12.9211 1.14883 15.4323 3.03757 17.3211C4.9263 19.2098 7.43744 20.25 10.1086 20.25C12.7797 20.25 15.291 19.2098 17.1797 17.3211C19.0685 15.4323 20.1086 12.9211 20.1086 10.25C20.1086 7.5788 19.0685 5.06766 17.1797 3.17892ZM5.12192 17.5307C5.54016 15.1226 7.62695 13.3463 10.1086 13.3463C12.5905 13.3463 14.6771 15.1226 15.0954 17.5307C13.6755 18.5062 11.9577 19.0781 10.1086 19.0781C8.25958 19.0781 6.54175 18.5062 5.12192 17.5307ZM6.92902 8.99481C6.92902 7.24142 8.35541 5.81519 10.1086 5.81519C11.8619 5.81519 13.2883 7.24158 13.2883 8.99481C13.2883 10.748 11.8619 12.1744 10.1086 12.1744C8.35541 12.1744 6.92902 10.748 6.92902 8.99481ZM16.1104 16.7179C15.795 15.5968 15.1686 14.5797 14.2906 13.7852C13.752 13.2976 13.1389 12.913 12.4797 12.6418C13.6711 11.8647 14.4603 10.5202 14.4603 8.99481C14.4603 6.59537 12.5081 4.64331 10.1086 4.64331C7.7092 4.64331 5.75714 6.59537 5.75714 8.99481C5.75714 10.5202 6.54633 11.8647 7.73758 12.6418C7.07855 12.913 6.4653 13.2975 5.92667 13.785C5.04883 14.5795 4.4223 15.5967 4.1069 16.7177C2.36969 15.1044 1.28052 12.8022 1.28052 10.25C1.28052 5.38214 5.24078 1.42188 10.1086 1.42188C14.9765 1.42188 18.9368 5.38214 18.9368 10.25C18.9368 12.8023 17.8476 15.1046 16.1104 16.7179Z" fill="white"/>
</svg>
