<svg width="21" height="21" viewBox="0 0 21 21" fill="none" xmlns="http://www.w3.org/2000/svg">
<g clip-path="url(#clip0)">
<path d="M17.4058 9.48823C17.9915 9.07667 18.3793 8.39207 18.3793 7.6204C18.3793 6.35803 17.3583 5.33706 16.096 5.33706C14.8336 5.33706 13.8126 6.35803 13.8126 7.6204C13.8126 8.39207 14.1965 9.07667 14.7861 9.48823C14.2836 9.66235 13.8245 9.93144 13.4367 10.2797C12.9025 9.82459 12.2733 9.47636 11.5847 9.27058C12.4197 8.76405 12.9816 7.84201 12.9816 6.79333C12.9816 5.1946 11.6876 3.90057 10.0889 3.90057C8.49012 3.90057 7.1961 5.19856 7.1961 6.79333C7.1961 7.84201 7.75407 8.76405 8.59301 9.27058C7.91236 9.47636 7.29107 9.82064 6.7608 10.2678C6.37299 9.92748 5.92186 9.66235 5.4272 9.49218C6.01288 9.08063 6.40069 8.39602 6.40069 7.62436C6.40069 6.36199 5.37971 5.34102 4.11735 5.34102C2.85498 5.34102 1.83401 6.36199 1.83401 7.62436C1.83401 8.39602 2.21786 9.08063 2.80749 9.49218C1.23646 10.0343 0.108643 11.5262 0.108643 13.2793V13.5405C0.108643 13.5484 0.116557 13.5563 0.124472 13.5563H4.9642C4.9365 13.7739 4.92067 13.9995 4.92067 14.2251V14.4942C4.92067 15.6576 5.8625 16.5994 7.02594 16.5994H13.1597C14.3231 16.5994 15.265 15.6576 15.265 14.4942V14.2251C15.265 13.9995 15.2491 13.7739 15.2214 13.5563H20.0928C20.1007 13.5563 20.1086 13.5484 20.1086 13.5405V13.2793C20.1007 11.5223 18.9769 10.0304 17.4058 9.48823ZM14.4458 7.61644C14.4458 6.70627 15.1858 5.96626 16.096 5.96626C17.0061 5.96626 17.7462 6.70627 17.7462 7.61644C17.7462 8.51474 17.022 9.24683 16.1276 9.26662C16.1158 9.26662 16.1079 9.26662 16.096 9.26662C16.0841 9.26662 16.0762 9.26662 16.0643 9.26662C15.166 9.25079 14.4458 8.5187 14.4458 7.61644ZM7.82134 6.79333C7.82134 5.54679 8.8344 4.53374 10.0809 4.53374C11.3275 4.53374 12.3405 5.54679 12.3405 6.79333C12.3405 7.99634 11.3948 8.9817 10.2115 9.04897C10.168 9.04897 10.1245 9.04897 10.0809 9.04897C10.0374 9.04897 9.99388 9.04897 9.95035 9.04897C8.76713 8.9817 7.82134 7.99634 7.82134 6.79333ZM2.4553 7.61644C2.4553 6.70627 3.19531 5.96626 4.10548 5.96626C5.01565 5.96626 5.75565 6.70627 5.75565 7.61644C5.75565 8.51474 5.03148 9.24683 4.13714 9.26662C4.12526 9.26662 4.11735 9.26662 4.10548 9.26662C4.09361 9.26662 4.08569 9.26662 4.07382 9.26662C3.17948 9.25079 2.4553 8.5187 2.4553 7.61644ZM5.07501 12.9192H0.749719C0.927796 11.2334 2.35241 9.91165 4.08173 9.89978C4.08965 9.89978 4.09756 9.89978 4.10548 9.89978C4.11339 9.89978 4.12131 9.89978 4.12922 9.89978C4.95233 9.90374 5.70421 10.2084 6.28593 10.7031C5.71608 11.3204 5.29265 12.0802 5.07501 12.9192ZM14.6239 14.4942C14.6239 15.3054 13.963 15.9663 13.1518 15.9663H7.01802C6.20678 15.9663 5.54592 15.3054 5.54592 14.4942V14.2251C5.54592 11.7676 7.50872 9.75732 9.95035 9.68609C9.99388 9.69005 10.0414 9.69005 10.0849 9.69005C10.1284 9.69005 10.1759 9.69005 10.2194 9.68609C12.6611 9.75732 14.6239 11.7676 14.6239 14.2251V14.4942ZM15.0948 12.9192C14.8771 12.0842 14.4616 11.3363 13.8957 10.7189C14.4814 10.2124 15.2412 9.9077 16.0722 9.89978C16.0801 9.89978 16.0881 9.89978 16.096 9.89978C16.1039 9.89978 16.1118 9.89978 16.1197 9.89978C17.849 9.91165 19.2737 11.2334 19.4517 12.9192H15.0948Z" fill="white"/>
</g>
<defs>
<clipPath id="clip0">
<rect width="20" height="20" fill="white" transform="translate(0.108643 0.25)"/>
</clipPath>
</defs>
</svg>
