<svg width="20" height="18" viewBox="0 0 20 18" fill="none" xmlns="http://www.w3.org/2000/svg">
<path d="M9.98852 0.589636L9.98847 0.589673L0.508125 7.53094C0.499269 7.53743 0.497459 7.54974 0.503817 7.55842C0.510228 7.56717 0.522568 7.56909 0.531321 7.56271L9.98852 0.589636ZM9.98852 0.589636C9.99532 0.584659 10.0046 0.584576 10.0116 0.589672L9.98852 0.589636ZM9.70463 0.846145L0.53135 7.56269L19.4919 7.53096C19.5008 7.53747 19.5025 7.54972 19.4962 7.5583L19.4961 7.55845C19.4937 7.56178 19.4916 7.56327 19.4895 7.56431C19.4868 7.56562 19.4834 7.56648 19.4799 7.56648C19.4776 7.56648 19.4757 7.56613 19.4742 7.56566C19.4738 7.56553 19.4734 7.56536 19.4729 7.56514C19.4718 7.56467 19.4704 7.56394 19.4688 7.56276L19.4687 7.56267L10.2954 0.846144L10 0.629872L9.70463 0.846145ZM10.0117 0.589696L19.4919 7.53094L10.0117 0.589696Z" fill="white" stroke="white"/>
<mask id="path-2-inside-1" fill="white">
<path d="M17.2752 8.08374C16.9882 8.08374 16.7555 8.3164 16.7555 8.60339V16.8748H12.5984V12.3598C12.5984 10.9269 11.4327 9.76132 9.99996 9.76132C8.56723 9.76132 7.40152 10.927 7.40152 12.3598V16.8749H3.24437V8.60343C3.24437 8.31644 3.01168 8.08378 2.72473 8.08378C2.43777 8.08378 2.20508 8.31644 2.20508 8.60343V17.3946C2.20508 17.6816 2.43777 17.9142 2.72473 17.9142H7.92117C8.19445 17.9142 8.41809 17.7031 8.43879 17.435C8.44004 17.4229 8.44082 17.4096 8.44082 17.3946V12.3598C8.44082 11.5001 9.14023 10.8007 9.99996 10.8007C10.8597 10.8007 11.5591 11.5001 11.5591 12.3598V17.3946C11.5591 17.4095 11.5599 17.4226 11.5611 17.4346C11.5816 17.7028 11.8053 17.9142 12.0787 17.9142H17.2752C17.5622 17.9142 17.7948 17.6816 17.7948 17.3946V8.60343C17.7948 8.3164 17.5621 8.08374 17.2752 8.08374Z"/>
</mask>
<path d="M17.2752 8.08374C16.9882 8.08374 16.7555 8.3164 16.7555 8.60339V16.8748H12.5984V12.3598C12.5984 10.9269 11.4327 9.76132 9.99996 9.76132C8.56723 9.76132 7.40152 10.927 7.40152 12.3598V16.8749H3.24437V8.60343C3.24437 8.31644 3.01168 8.08378 2.72473 8.08378C2.43777 8.08378 2.20508 8.31644 2.20508 8.60343V17.3946C2.20508 17.6816 2.43777 17.9142 2.72473 17.9142H7.92117C8.19445 17.9142 8.41809 17.7031 8.43879 17.435C8.44004 17.4229 8.44082 17.4096 8.44082 17.3946V12.3598C8.44082 11.5001 9.14023 10.8007 9.99996 10.8007C10.8597 10.8007 11.5591 11.5001 11.5591 12.3598V17.3946C11.5591 17.4095 11.5599 17.4226 11.5611 17.4346C11.5816 17.7028 11.8053 17.9142 12.0787 17.9142H17.2752C17.5622 17.9142 17.7948 17.6816 17.7948 17.3946V8.60343C17.7948 8.3164 17.5621 8.08374 17.2752 8.08374Z" fill="white"/>
<path d="M16.7555 16.8748V18.8748H18.7555V16.8748H16.7555ZM12.5984 16.8748H10.5984V18.8748H12.5984V16.8748ZM7.40152 16.8749V18.8749H9.40152V16.8749H7.40152ZM3.24437 16.8749H1.24437V18.8749H3.24437V16.8749ZM8.43879 17.435L6.44929 17.2303L6.44669 17.2556L6.44473 17.281L8.43879 17.435ZM11.5611 17.4346L13.5553 17.2824L13.5532 17.2548L13.5504 17.2272L11.5611 17.4346ZM17.7948 8.60343H19.7948V8.60316L17.7948 8.60343ZM17.2752 6.08374C15.8837 6.08374 14.7555 7.21173 14.7555 8.60339H18.7555C18.7555 9.42107 18.0927 10.0837 17.2752 10.0837V6.08374ZM14.7555 8.60339V16.8748H18.7555V8.60339H14.7555ZM16.7555 14.8748H12.5984V18.8748H16.7555V14.8748ZM14.5984 16.8748V12.3598H10.5984V16.8748H14.5984ZM14.5984 12.3598C14.5984 9.82233 12.5372 7.76132 9.99996 7.76132V11.7613C10.3282 11.7613 10.5984 12.0316 10.5984 12.3598H14.5984ZM9.99996 7.76132C7.46266 7.76132 5.40152 9.82245 5.40152 12.3598H9.40152C9.40152 12.0316 9.6718 11.7613 9.99996 11.7613V7.76132ZM5.40152 12.3598V16.8749H9.40152V12.3598H5.40152ZM7.40152 14.8749H3.24437V18.8749H7.40152V14.8749ZM5.24437 16.8749V8.60343H1.24437V16.8749H5.24437ZM5.24437 8.60343C5.24437 7.21177 4.11615 6.08378 2.72473 6.08378V10.0838C1.90721 10.0838 1.24437 9.4211 1.24437 8.60343H5.24437ZM2.72473 6.08378C1.3333 6.08378 0.205078 7.21177 0.205078 8.60343H4.20508C4.20508 9.4211 3.54224 10.0838 2.72473 10.0838V6.08378ZM0.205078 8.60343V17.3946H4.20508V8.60343H0.205078ZM0.205078 17.3946C0.205078 18.7862 1.3333 19.9142 2.72473 19.9142V15.9142C3.54225 15.9142 4.20508 16.5769 4.20508 17.3946H0.205078ZM2.72473 19.9142H7.92117V15.9142H2.72473V19.9142ZM7.92117 19.9142C9.25008 19.9142 10.3325 18.888 10.4329 17.589L6.44473 17.281C6.50365 16.5181 7.13883 15.9142 7.92117 15.9142V19.9142ZM10.4283 17.6397C10.4363 17.5623 10.4408 17.4806 10.4408 17.3946H6.44082C6.44082 17.3385 6.44382 17.2835 6.44929 17.2303L10.4283 17.6397ZM10.4408 17.3946V12.3598H6.44082V17.3946H10.4408ZM10.4408 12.3598C10.4408 12.6046 10.2448 12.8007 9.99996 12.8007V8.80065C8.03567 8.80065 6.44082 10.3955 6.44082 12.3598H10.4408ZM9.99996 12.8007C9.75509 12.8007 9.5591 12.6046 9.5591 12.3598H13.5591C13.5591 10.3956 11.9643 8.80065 9.99996 8.80065V12.8007ZM9.5591 12.3598V17.3946H13.5591V12.3598H9.5591ZM9.5591 17.3946C9.5591 17.4815 9.56377 17.5638 9.57191 17.6419L13.5504 17.2272C13.556 17.2813 13.5591 17.3375 13.5591 17.3946H9.5591ZM9.56693 17.5867C9.66612 18.8866 10.7489 19.9142 12.0787 19.9142V15.9142C12.8617 15.9142 13.4971 16.519 13.5553 17.2824L9.56693 17.5867ZM12.0787 19.9142H17.2752V15.9142H12.0787V19.9142ZM17.2752 19.9142C18.6668 19.9142 19.7948 18.7861 19.7948 17.3946H15.7948C15.7948 16.577 16.4576 15.9142 17.2752 15.9142V19.9142ZM19.7948 17.3946V8.60343H15.7948V17.3946H19.7948ZM19.7948 8.60316C19.7947 7.21192 18.6669 6.08374 17.2752 6.08374V10.0837C16.4574 10.0837 15.795 9.42087 15.7948 8.6037L19.7948 8.60316Z" fill="white" mask="url(#path-2-inside-1)"/>
</svg>
