<svg width="20" height="23" viewBox="0 0 20 23" fill="none" xmlns="http://www.w3.org/2000/svg">
<path d="M7.91567 9.85272C8.56567 9.85272 9.09217 10.3215 9.08025 10.8944C9.08025 11.4673 8.56675 11.9361 7.91567 11.9361C7.2765 11.9361 6.75 11.4673 6.75 10.8944C6.75 10.3215 7.26458 9.85272 7.91567 9.85272ZM12.0843 9.85272C12.7354 9.85272 13.25 10.3215 13.25 10.8944C13.25 11.4673 12.7354 11.9361 12.0843 11.9361C11.4452 11.9361 10.9198 11.4673 10.9198 10.8944C10.9198 10.3215 11.4333 9.85272 12.0843 9.85272ZM17.4653 0.477722C18.7252 0.477722 19.75 1.48397 19.75 2.73085V22.3527L17.3547 20.2746L16.006 19.0496L14.5792 17.7475L15.1708 19.7715H2.53475C1.27483 19.7715 0.25 18.7652 0.25 17.5183V2.73085C0.25 1.48397 1.27483 0.477722 2.53475 0.477722H17.4642H17.4653ZM13.1644 14.7621C15.6268 14.6861 16.5748 13.0996 16.5748 13.0996C16.5748 9.57772 14.9693 6.72251 14.9693 6.72251C13.3659 5.5423 11.8384 5.5746 11.8384 5.5746L11.6824 5.7496C13.5772 6.31835 14.4568 7.13918 14.4568 7.13918C13.4223 6.57875 12.2822 6.22182 11.1028 6.08918C10.3547 6.00793 9.59909 6.01493 8.85275 6.11001C8.78558 6.11001 8.72925 6.12147 8.66317 6.13189C8.27317 6.16522 7.32525 6.30689 6.13358 6.82147C5.72192 7.00689 5.476 7.13918 5.476 7.13918C5.476 7.13918 6.40117 6.2746 8.40642 5.70585L8.29483 5.5746C8.29483 5.5746 6.76842 5.5423 5.164 6.72356C5.164 6.72356 3.55958 9.57772 3.55958 13.0996C3.55958 13.0996 4.49558 14.685 6.958 14.7621C6.958 14.7621 7.36967 14.2704 7.7055 13.8548C6.28958 13.4381 5.7555 12.5631 5.7555 12.5631C5.7555 12.5631 5.866 12.6402 6.06642 12.7496C6.07725 12.76 6.08808 12.7715 6.11083 12.7819C6.14442 12.8048 6.178 12.8152 6.21158 12.8371C6.49 12.9902 6.76842 13.11 7.02408 13.209C7.48125 13.384 8.02725 13.559 8.66317 13.6798C9.61576 13.8593 10.5952 13.8629 11.5492 13.6902C12.1048 13.5949 12.6469 13.4372 13.1644 13.2204C13.5544 13.0777 13.9888 12.8694 14.446 12.5746C14.446 12.5746 13.8892 13.4715 12.4288 13.8767C12.7636 14.2923 13.1655 14.7621 13.1655 14.7621H13.1644Z" fill="white"/>
</svg>
