<svg width="21" height="21" viewBox="0 0 21 21" fill="none" xmlns="http://www.w3.org/2000/svg">
<g clip-path="url(#clip0)">
<path d="M19.5957 17.9062L14.6495 2.34511C14.3427 1.38046 13.3083 0.844956 12.3438 1.15144L10.5564 1.71949C10.4321 1.75906 10.3142 1.81136 10.2037 1.87437C9.88445 1.33128 9.29434 0.965698 8.62012 0.965698H6.74512C6.26254 0.965698 5.82312 1.15312 5.49512 1.45867C5.16707 1.15312 4.7277 0.965698 4.24512 0.965698H2.37012C1.35777 0.965698 0.53418 1.78929 0.53418 2.80164V19.1298C0.53418 20.1421 1.35777 20.9657 2.37012 20.9657H4.24512C4.7277 20.9657 5.16711 20.7783 5.49512 20.4727C5.82312 20.7782 6.26254 20.9657 6.74512 20.9657H8.62012C9.63246 20.9657 10.4561 20.1421 10.4561 19.1298V7.46339L14.3094 19.5863C14.5576 20.3668 15.2821 20.8663 16.0606 20.8663C16.2443 20.8663 16.431 20.8385 16.6152 20.78L18.4025 20.2119C18.8697 20.0632 19.2512 19.7416 19.4766 19.3062C19.7021 18.8706 19.7443 18.3733 19.5957 17.9062ZM16.5855 12.3047L13.5329 13.275L11.616 7.24417L14.6686 6.27386L16.5855 12.3047ZM16.9405 13.4215L17.3429 14.6872L14.2902 15.6575L13.8879 14.3918L16.9405 13.4215ZM6.08105 6.55164H9.28418V12.8798H6.08105V6.55164ZM4.90918 12.8798H1.70605V6.55164H4.90918V12.8798ZM1.70605 14.0516H4.90918V15.3798H1.70605V14.0516ZM6.08105 14.0516H9.28418V15.3798H6.08105V14.0516ZM6.74512 2.13757H8.62012C8.98629 2.13757 9.28418 2.43546 9.28418 2.80164V5.37976H6.08105V2.80164C6.08105 2.43546 6.37895 2.13757 6.74512 2.13757ZM2.37012 2.13757H4.24512C4.61129 2.13757 4.90918 2.43546 4.90918 2.80164V5.37976H1.70605V2.80164C1.70605 2.43546 2.00395 2.13757 2.37012 2.13757ZM4.24512 19.7938H2.37012C2.00395 19.7938 1.70605 19.4959 1.70605 19.1298V16.5516H4.90918V19.1298C4.90918 19.4959 4.61129 19.7938 4.24512 19.7938ZM8.62012 19.7938H6.74512C6.37895 19.7938 6.08105 19.4959 6.08105 19.1298V16.5516H9.28418V19.1298C9.28418 19.4959 8.98629 19.7938 8.62012 19.7938ZM10.4561 3.37511C10.4921 3.12375 10.6685 2.91359 10.9116 2.83621L12.6987 2.26824C13.0477 2.15738 13.4218 2.35125 13.5328 2.70019L14.3137 5.15703L11.2611 6.12734L10.4802 3.67058C10.4686 3.63429 10.4561 3.37511 10.4561 3.37511ZM18.4359 18.7674C18.3543 18.925 18.2162 19.0414 18.0473 19.0952L16.2602 19.6632C15.9114 19.774 15.5371 19.5802 15.4261 19.2312L14.6452 16.7744L17.6978 15.8041L18.4789 18.2614C18.5327 18.4303 18.5174 18.61 18.4359 18.7674Z" fill="white"/>
</g>
<defs>
<clipPath id="clip0">
<rect width="20" height="20" fill="white" transform="translate(0.108643 0.965698)"/>
</clipPath>
</defs>
</svg>
