<svg width="22" height="22" viewBox="0 0 22 22" fill="none" xmlns="http://www.w3.org/2000/svg">
<path d="M4.8075 3.01944C4.8072 3.61617 4.56986 4.18835 4.14769 4.6101C3.72552 5.03184 3.15311 5.26861 2.55637 5.26831C1.95963 5.26801 1.38746 5.03067 0.965709 4.60851C0.543964 4.18634 0.307197 3.61392 0.307495 3.01719C0.307794 2.42045 0.545133 1.84827 0.967301 1.42652C1.38947 1.00478 1.96188 0.768012 2.55862 0.768311C3.15536 0.768609 3.72754 1.00595 4.14928 1.42812C4.57103 1.85028 4.80779 2.4227 4.8075 3.01944ZM4.875 6.93444H0.374995V21.0194H4.875V6.93444ZM11.985 6.93444H7.5075V21.0194H11.94V13.6282C11.94 9.51069 17.3062 9.12819 17.3062 13.6282V21.0194H21.75V12.0982C21.75 5.15694 13.8075 5.41569 11.94 8.82444L11.985 6.93444Z" fill="white"/>
</svg>
