<svg width="20" height="21" viewBox="0 0 20 21" fill="none" xmlns="http://www.w3.org/2000/svg">
<g clip-path="url(#clip0)">
<path d="M9.99998 0.215698C4.47715 0.215698 0 4.69284 0 10.2157C0 15.7385 4.47715 20.2157 9.99998 20.2157C15.5228 20.2157 20 15.7385 20 10.2157C19.9941 4.69531 15.5204 0.221599 9.99998 0.215698ZM9.99998 18.7871C5.26611 18.7871 1.42856 14.9495 1.42856 10.2157C1.42856 5.48181 5.26611 1.64425 9.99998 1.64425C14.7338 1.64425 18.5714 5.48181 18.5714 10.2157C18.5663 14.9475 14.7318 18.782 9.99998 18.7871Z" fill="white"/>
<path d="M14.2114 9.89699C14.1421 9.75813 14.0296 9.64554 13.8907 9.57632L8.17642 6.71916C7.82352 6.54284 7.39452 6.68593 7.21816 7.03883C7.16856 7.13807 7.14278 7.24751 7.14282 7.35846V13.0728C7.14265 13.4673 7.46228 13.7872 7.85679 13.7874C7.96774 13.7874 8.07718 13.7617 8.17642 13.7121L13.8907 10.8549C14.2438 10.679 14.3874 10.2501 14.2114 9.89699ZM8.57142 11.9171V8.51418L11.9743 10.2156L8.57142 11.9171Z" fill="white"/>
</g>
<defs>
<clipPath id="clip0">
<rect width="20" height="20" fill="white" transform="translate(0 0.215698)"/>
</clipPath>
</defs>
</svg>
