<svg width="21" height="21" viewBox="0 0 21 21" fill="none" xmlns="http://www.w3.org/2000/svg">
<g clip-path="url(#clip0)">
<path d="M19.6012 7.4924C19.0142 6.28848 18.006 5.61441 17.0305 4.96175C16.3036 4.47476 15.6181 4.0149 15.1326 3.35653L15.0426 3.23514C14.757 2.85097 14.4313 2.41539 14.3814 2.04979C14.3314 1.6799 14.04 1.42284 13.6259 1.43427C13.2517 1.45997 12.9618 1.7713 12.9618 2.1469V14.8716C12.3634 14.5088 11.6265 14.286 10.8196 14.286C8.85163 14.286 7.24927 15.5671 7.24927 17.1423C7.24927 18.7175 8.85163 19.9985 10.8196 19.9985C12.789 19.9985 14.3899 18.7175 14.3899 17.1423V8.81913C15.4625 9.22901 17.2176 10.273 17.7003 12.7108C17.6104 12.8436 17.5247 12.9878 17.4247 13.1007C17.1634 13.3963 17.1933 13.8476 17.489 14.1075C17.7832 14.3703 18.2345 14.3389 18.4958 14.0432C19.3898 13.0278 20.0053 11.4198 20.101 9.84739C20.1482 9.07191 19.9753 8.25788 19.6012 7.4924Z" fill="white"/>
<path d="M0.822708 2.86099H9.3915C9.78566 2.86099 10.1056 2.54109 10.1056 2.14693C10.1056 1.75276 9.78566 1.43286 9.3915 1.43286H0.822708C0.428544 1.43286 0.108643 1.75276 0.108643 2.14693C0.108643 2.54109 0.428544 2.86099 0.822708 2.86099Z" fill="white"/>
<path d="M0.822708 7.14542H9.3915C9.78566 7.14542 10.1056 6.82552 10.1056 6.43135C10.1056 6.03719 9.78566 5.71729 9.3915 5.71729H0.822708C0.428544 5.71729 0.108643 6.03719 0.108643 6.43135C0.108643 6.82552 0.428544 7.14542 0.822708 7.14542Z" fill="white"/>
<path d="M5.10711 10.0016H0.822709C0.428544 10.0016 0.108643 10.3215 0.108643 10.7157C0.108643 11.1099 0.428544 11.4298 0.822709 11.4298H5.10711C5.50127 11.4298 5.82118 11.1099 5.82118 10.7157C5.82118 10.3215 5.50127 10.0016 5.10711 10.0016Z" fill="white"/>
<path d="M5.10711 14.2861H0.822709C0.428544 14.2861 0.108643 14.606 0.108643 15.0001C0.108643 15.3943 0.428544 15.7142 0.822709 15.7142H5.10711C5.50127 15.7142 5.82118 15.3943 5.82118 15.0001C5.82118 14.606 5.50127 14.2861 5.10711 14.2861Z" fill="white"/>
</g>
<defs>
<clipPath id="clip0">
<rect width="20" height="20" fill="white" transform="translate(0.108643 0.715698)"/>
</clipPath>
</defs>
</svg>
