<svg width="20" height="21" viewBox="0 0 20 21" fill="none" xmlns="http://www.w3.org/2000/svg">
<g clip-path="url(#clip0)">
<path d="M0.772817 5.96979C0.345965 5.96979 0 6.31575 0 6.7426V14.1888C0 14.6156 0.345965 14.9616 0.772817 14.9616C1.19967 14.9616 1.54563 14.6156 1.54563 14.1888V6.7426C1.54563 6.31575 1.19967 5.96979 0.772817 5.96979Z" fill="white"/>
<path d="M4.46374 3.73651C4.03688 3.73651 3.69092 4.08248 3.69092 4.50933V16.4219C3.69092 16.8487 4.03688 17.1947 4.46374 17.1947C4.89059 17.1947 5.23655 16.8487 5.23655 16.4219V4.50933C5.23655 4.08248 4.89059 3.73651 4.46374 3.73651Z" fill="white"/>
<path d="M8.15465 0.628479C7.7278 0.628479 7.38184 0.974444 7.38184 1.4013V19.53C7.38184 19.9568 7.7278 20.3028 8.15465 20.3028C8.58151 20.3028 8.92747 19.9568 8.92747 19.53V1.4013C8.92747 0.974529 8.58151 0.628479 8.15465 0.628479Z" fill="white"/>
<path d="M11.8453 5.13361C11.4185 5.13361 11.0725 5.47957 11.0725 5.90642V15.0251C11.0725 15.4519 11.4185 15.7979 11.8453 15.7979C12.2722 15.7979 12.6181 15.4519 12.6181 15.0251V5.90642C12.6181 5.47957 12.2722 5.13361 11.8453 5.13361Z" fill="white"/>
<path d="M15.5362 5.96979C15.1094 5.96979 14.7634 6.31575 14.7634 6.7426V14.1888C14.7634 14.6156 15.1094 14.9616 15.5362 14.9616C15.9631 14.9616 16.3091 14.6156 16.3091 14.1888V6.7426C16.3091 6.31575 15.963 5.96979 15.5362 5.96979Z" fill="white"/>
<path d="M19.2272 8.44452C18.8003 8.44452 18.4543 8.79048 18.4543 9.21733V11.7141C18.4543 12.141 18.8003 12.4869 19.2272 12.4869C19.654 12.4869 20 12.141 20 11.7141V9.21733C20 8.79048 19.654 8.44452 19.2272 8.44452Z" fill="white"/>
</g>
<defs>
<clipPath id="clip0">
<rect width="20" height="20" fill="white" transform="translate(0 0.465698)"/>
</clipPath>
</defs>
</svg>
