<svg width="22" height="18" viewBox="0 0 22 18" fill="none" xmlns="http://www.w3.org/2000/svg">
<path d="M21.1621 2.5504C20.3986 2.88809 19.589 3.10987 18.7601 3.2084C19.6338 2.68583 20.2878 1.86341 20.6001 0.894397C19.7801 1.3824 18.8811 1.7244 17.9441 1.9094C17.3147 1.23598 16.4804 0.78936 15.571 0.638982C14.6616 0.488603 13.728 0.642888 12.9153 1.07785C12.1026 1.51281 11.4564 2.20408 11.0772 3.04419C10.6979 3.8843 10.6068 4.82618 10.8181 5.7234C9.15516 5.64005 7.52838 5.20792 6.04334 4.45506C4.55829 3.7022 3.24818 2.64544 2.19805 1.3534C1.82634 1.99185 1.63101 2.71762 1.63205 3.4564C1.63205 4.9064 2.37005 6.1874 3.49205 6.9374C2.82806 6.91649 2.17869 6.73718 1.59805 6.4144V6.4664C1.59825 7.4321 1.93242 8.36801 2.5439 9.11546C3.15538 9.8629 4.00653 10.3759 4.95305 10.5674C4.33667 10.7344 3.69036 10.7591 3.06305 10.6394C3.32992 11.4706 3.85006 12.1976 4.55064 12.7185C5.25123 13.2394 6.09718 13.5282 6.97005 13.5444C6.10253 14.2257 5.10923 14.7294 4.04693 15.0266C2.98464 15.3238 1.87418 15.4087 0.779053 15.2764C2.69075 16.5058 4.91615 17.1585 7.18905 17.1564C14.8821 17.1564 19.0891 10.7834 19.0891 5.2564C19.0891 5.0764 19.0841 4.8944 19.0761 4.7164C19.8949 4.12456 20.6017 3.39142 21.1631 2.5514L21.1621 2.5504Z" fill="white"/>
</svg>
